# xmcd
#
# Track frame offsets:
#	150
#	11357
#	18926
#	31751
#	45927
#	59424
#	66361
#	87939
#	96805
#	118863
#	145753
#	170413
#	190593
#	211874
#
# Disc length: 3041 seconds
#
# Revision: 0
# Processed by: cddbd v1.5.2PL0 Copyright (c) Steve Scherf et al.
# Submitted via: audiograbber 1.83.01
#
DISCID=ad0bdf0e
DTITLE=Georges Moustaki - Olympia 77 nouvelle version
DYEAR=1977
DGENRE=Chanson francaise
TTITLE0=Presentation des musiciens
TTITLE1=Homme (je te salue)
TTITLE2=On l'appelle folie
TTITLE3=Les amis de Georges
TTITLE4=Alexandrie
TTITLE5=Mon amour aux yeux noirs
TTITLE6=Kaimos
TTITLE7=Le meteque
TTITLE8=Sans la nommer
TTITLE9=Nous avons le temps
TTITLE10=Bahia
TTITLE11=Petite fable
TTITLE12=Flamenco
TTITLE13=Pourquoi, mon Dieu
EXTD=
EXTT0=
EXTT1=
EXTT2=
EXTT3=
EXTT4=
EXTT5=
EXTT6=
EXTT7=
EXTT8=
EXTT9=
EXTT10=
EXTT11=
EXTT12=
EXTT13=
PLAYORDER=
